<?xml version="1.0" encoding="utf-8"?>
<!-- Generator: Adobe Illustrator 24.1.0, SVG Export Plug-In . SVG Version: 6.00 Build 0)  -->
<svg version="1.1" id="Capa_1" xmlns="http://www.w3.org/2000/svg" xmlns:xlink="http://www.w3.org/1999/xlink" x="0px" y="0px"
	 viewBox="0 0 400 400" style="enable-background:new 0 0 400 400;" xml:space="preserve">
<style type="text/css">
	.st0{fill:#DA292F;}
	.st1{clip-path:url(#SVGID_2_);fill:url(#SVGID_3_);}
	.st2{clip-path:url(#SVGID_5_);fill:url(#SVGID_6_);}
</style>
<g>
	<g>
		<path class="st0" d="M100.9,196.38c0,2.72-1.48,5.43-4.41,6.55c2.73,0.92,4.84,3.03,4.84,7.07c0,7.18-5.73,8.51-12.04,8.51
			c-3.93,0-7.45-0.31-10.39-0.83v-28.74c2.33-0.47,6.21-0.9,9.92-0.9C94.47,188.03,100.9,189.12,100.9,196.38 M85.81,205.52v7.16
			c0.99,0.14,2.1,0.22,3.36,0.22c3.06,0,5.24-0.51,5.24-3.6c0-3.27-2.33-3.78-5.38-3.78H85.81z M89.03,200.37
			c2.93,0,5.1-0.5,5.1-3.47c0-2.98-2.09-3.32-5.3-3.32c-0.95,0-2.06,0.08-2.99,0.19v6.6H89.03z"/>
		<path class="st0" d="M105.2,211.06c0-4.11,1.82-6.61,6.51-7.38c2.25-0.37,4.3-0.45,6.5-0.54c0-2.06-1.06-2.83-3.5-2.83
			c-2.77,0-5.92,0.32-8.19,0.62l-0.53-4.94c2.33-0.41,5.74-0.91,9.11-0.91c5.17,0,9.5,1.47,9.5,7.51v9.2c0,1.6-0.05,2.95-0.19,4.48
			c-2.75,1.64-6.22,2.24-10.19,2.24C107.77,218.51,105.2,216.04,105.2,211.06 M118.2,207.43c-1.4,0.09-2.99,0.16-4.27,0.48
			c-1.63,0.4-2.29,0.95-2.29,3.07c0,1.92,1.17,2.47,3.18,2.47c1.03,0,2.2-0.06,3.24-0.45c0.1-0.92,0.14-2.04,0.14-3.06V207.43z"/>
		<path class="st0" d="M135.81,218.2h-6.51v-16.4c0-1.6,0.05-2.95,0.19-4.48c2.74-1.59,6.38-2.24,10.11-2.24
			c8.43,0,9.39,3.6,9.39,8.72v14.41h-6.53v-13.92c0-2.77-0.53-3.89-3.68-3.9c-1.01,0-2.13,0.17-2.83,0.45
			c-0.1,0.92-0.14,2.04-0.14,3.06V218.2z"/>
		<path class="st0" d="M169.56,217.56c-2.04,0.55-4.64,0.95-7.86,0.95c-7.7,0-8.84-5.89-8.84-11.92c0-7.47,1.77-11.52,10.22-11.52
			c2.78,0,4.8,0.42,6.44,0.96l-0.53,4.79c-1.52-0.31-2.88-0.6-4.33-0.6c-4.63,0-5.2,1.51-5.2,6.37c0,4.6,0.23,6.61,5.27,6.61
			c1.49,0,2.77-0.27,4.27-0.59L169.56,217.56z"/>
		<path class="st0" d="M172.41,206.78c0-8.49,2.73-11.71,10.31-11.71c7.57,0,10.3,3.28,10.3,11.71c0,8.46-2.73,11.73-10.3,11.73
			C175.14,218.51,172.41,215.29,172.41,206.78 M186.46,206.78c0-4.98-0.72-6.38-3.74-6.38s-3.73,1.3-3.73,6.38
			c0,5.1,0.69,6.38,3.73,6.38C185.75,213.16,186.46,211.79,186.46,206.78"/>
		<path class="st0" d="M206.31,218.24l8.74-25.51c1.19-3.44,2.85-4.83,5.39-4.83c2.45,0,4.23,1.54,5.34,4.83l8.61,25.51h-7.45
			l-2.04-6.86h-9.37l-1.97,6.86H206.31z M223.29,205.94l-3.13-10.6l-3.05,10.6H223.29z"/>
		<path class="st0" d="M258.8,187.96v23.14c0,1.57,0.67,2.38,2.37,2.38c0.68,0,1.27-0.07,1.98-0.26l0.65,4.87
			c-1.38,0.26-3.02,0.47-4.42,0.47c-5.01,0-7.14-2.22-7.14-6.68v-23.91H258.8z"/>
		<path class="st0" d="M265.42,211.06c0-4.14,1.82-6.65,6.55-7.43c2.26-0.37,4.33-0.45,6.52-0.54c0-2.08-1.06-2.85-3.51-2.85
			c-2.79,0-5.95,0.32-8.24,0.62l-0.54-4.97c2.35-0.41,5.79-0.91,9.18-0.91c5.2,0,9.55,1.48,9.55,7.55v9.26
			c0,1.61-0.06,2.96-0.2,4.51c-2.76,1.65-6.25,2.26-10.26,2.26C268.01,218.55,265.42,216.07,265.42,211.06 M278.5,207.41
			c-1.41,0.09-3,0.15-4.29,0.48c-1.62,0.4-2.29,0.95-2.29,3.09c0,1.93,1.16,2.49,3.18,2.49c1.05,0,2.23-0.07,3.26-0.45
			c0.11-0.93,0.14-2.05,0.14-3.08V207.41z M277.93,192.52h-5.01l3.37-5.74h6.54L277.93,192.52z"/>
		<path class="st0" d="M296.5,218.24h-6.55v-16.5c0-1.61,0.05-2.96,0.2-4.51c2.76-1.6,6.42-2.26,10.17-2.26
			c8.48,0,9.45,3.62,9.45,8.76v14.5h-6.58v-14c0-2.78-0.53-3.92-3.7-3.93c-1.02,0-2.14,0.17-2.85,0.45
			c-0.1,0.93-0.14,2.05-0.14,3.08V218.24z"/>
		<path class="st0" d="M330.09,189.78c0-2.37,0.88-3.29,3.55-3.29c2.66,0,3.55,0.91,3.55,3.29c0,2.37-0.86,3.29-3.55,3.29
			C330.96,193.07,330.09,192.16,330.09,189.78 M330.33,194.97h6.67v23.27h-6.67V194.97z"/>
		<path class="st0" d="M355.55,187.96h6.61v23.82c0,1.61-0.05,2.96-0.2,4.51c-2.6,1.59-6.25,2.26-9.47,2.26
			c-7.78,0-11.04-2.75-11.04-11.8c0-8.94,3.26-11.78,10.39-11.78c1.16,0,2.54,0.13,3.7,0.35V187.96z M353.04,200.25
			c-4.79,0-4.96,2.81-4.96,6.5c0,3.25,0.14,6.55,4.42,6.55c1.04,0,2.2-0.16,2.91-0.44c0.1-0.93,0.14-2.05,0.14-3.08v-9.18
			C354.82,200.4,353.84,200.25,353.04,200.25"/>
		<path class="st0" d="M366.32,211.06c0-4.14,1.83-6.65,6.55-7.43c2.27-0.37,4.33-0.45,6.54-0.54c0-2.08-1.07-2.85-3.52-2.85
			c-2.78,0-5.96,0.32-8.24,0.62l-0.53-4.98c2.34-0.41,5.78-0.91,9.16-0.91c5.2,0,9.55,1.48,9.55,7.55v9.26
			c0,1.61-0.05,2.96-0.2,4.51c-2.76,1.65-6.25,2.26-10.25,2.26C368.91,218.55,366.32,216.07,366.32,211.06 M379.4,207.41
			c-1.4,0.09-3,0.15-4.29,0.48c-1.63,0.4-2.31,0.95-2.31,3.09c0,1.93,1.17,2.49,3.2,2.49c1.05,0,2.22-0.07,3.26-0.45
			c0.1-0.93,0.14-2.05,0.14-3.08V207.41z"/>
		<path class="st0" d="M320.98,187.96v7.01h5.7v5.44h-5.7v10.68c0,1.57,0.67,2.38,2.37,2.38c0.68,0,1.38-0.03,2.11-0.09l0.52,4.69
			c-1.38,0.26-3.02,0.47-4.42,0.47c-5.01,0-7.14-2.22-7.14-6.68v-23.91H320.98z"/>
		<path class="st0" d="M242.97,187.96v7.01h5.7v5.44h-5.7v10.68c0,1.57,0.67,2.38,2.37,2.38c0.68,0,1.38-0.03,2.11-0.09l0.52,4.69
			c-1.38,0.26-3.02,0.47-4.42,0.47c-5.02,0-7.14-2.22-7.14-6.68v-23.91H242.97z"/>
	</g>
	<g>
		<defs>
			<path id="SVGID_1_" d="M15.39,181.42c-0.67,0-1.22,0.54-1.22,1.22v19.97c0,9.67,6.22,15.97,15.88,15.97h8.23
				c0.67,0,1.22-0.55,1.22-1.23v-9.83c0-0.67-0.55-1.22-1.22-1.22h-5.25c-0.67,0-3.82-0.1-3.82-3.81v-19.85
				c0-0.67-0.55-1.22-1.22-1.22H15.39z"/>
		</defs>
		<clipPath id="SVGID_2_">
			<use xlink:href="#SVGID_1_"  style="overflow:visible;"/>
		</clipPath>
		
			<linearGradient id="SVGID_3_" gradientUnits="userSpaceOnUse" x1="-229.9346" y1="492.2386" x2="-229.2524" y2="492.2386" gradientTransform="matrix(26.8041 0 0 -26.8041 6184.7622 13394.0117)">
			<stop  offset="0" style="stop-color:#E22132"/>
			<stop  offset="0.5786" style="stop-color:#CE1D2E"/>
			<stop  offset="1" style="stop-color:#BD1B2B"/>
		</linearGradient>
		<rect x="14.17" y="181.42" class="st1" width="25.33" height="37.16"/>
	</g>
	<g>
		<defs>
			<path id="SVGID_4_" d="M32.25,186.78c-0.67,0-1.23,0.55-1.23,1.23v11.27c0,0.67,0.55,1.22,1.23,1.22h6c0.67,0,3.04,0.1,3.04,3.82
				v13.04c0,0.67,0.55,1.23,1.23,1.23h12.6c0.67,0,1.23-0.55,1.23-1.23v-14.6c0-9.67-6.22-15.97-15.89-15.97H32.25z"/>
		</defs>
		<clipPath id="SVGID_5_">
			<use xlink:href="#SVGID_4_"  style="overflow:visible;"/>
		</clipPath>
		
			<linearGradient id="SVGID_6_" gradientUnits="userSpaceOnUse" x1="-207.5121" y1="502.6703" x2="-206.8299" y2="502.6703" gradientTransform="matrix(-22.3244 0 0 22.3244 -4584.5962 -11019.1309)">
			<stop  offset="0" style="stop-color:#E22132"/>
			<stop  offset="0.5786" style="stop-color:#CE1D2E"/>
			<stop  offset="1" style="stop-color:#BD1B2B"/>
		</linearGradient>
		<rect x="31.02" y="186.78" class="st2" width="25.31" height="31.8"/>
	</g>
</g>
</svg>
