<svg xmlns="http://www.w3.org/2000/svg" xmlns:xlink="http://www.w3.org/1999/xlink" version="1.1" style="" xml:space="preserve" width="342" height="84"><rect id="backgroundrect" width="100%" height="100%" x="0" y="0" fill="none" stroke="none"/>
<style type="text/css">
	.st0{fill:#DA292F;}
	.st1{clip-path:url(#SVGID_2_);fill:url(#SVGID_3_);}
	.st2{clip-path:url(#SVGID_5_);fill:url(#SVGID_6_);}
</style>

<g class="currentLayer" style=""><title>Layer 1</title><g id="svg_1" class="">
	<g id="svg_2">
		<path class="st0" d="M145.47000282287598,10.78000061035155 c0,3.44 -1.87,6.890000000000001 -5.59,8.31 c3.46,1.17 6.15,3.85 6.15,8.97 c0,9.11 -7.27,10.8 -15.29,10.8 c-4.99,0 -9.45,-0.39000000000000007 -13.19,-1.06 v-36.48 c2.96,-0.6000000000000001 7.890000000000001,-1.1400000000000001 12.59,-1.1400000000000001 C137.310002822876,0.190000610351575 145.47000282287598,1.5700006103515705 145.47000282287598,10.78000061035155 M126.31000282287599,22.390000610351564 v9.1 c1.25,0.18000000000000002 2.67,0.28 4.26,0.28 c3.89,0 6.65,-0.6500000000000001 6.65,-4.57 c0,-4.15 -2.96,-4.8 -6.83,-4.8 H126.31000282287599 zM130.39000282287597,15.850000610351572 c3.72,0 6.47,-0.6400000000000001 6.47,-4.41 c0,-3.79 -2.6500000000000004,-4.21 -6.73,-4.21 c-1.2,0 -2.62,0.1 -3.79,0.25 v8.38 H130.39000282287597 z" id="svg_3"/>
		<path class="st0" d="M150.92000282287597,29.420000610351565 c0,-5.22 2.31,-8.39 8.26,-9.36 c2.8600000000000003,-0.47000000000000003 5.47,-0.5800000000000001 8.24,-0.6900000000000002 c0,-2.6100000000000003 -1.35,-3.6 -4.44,-3.6 c-3.51,0 -7.52,0.41000000000000003 -10.39,0.78 l-0.6700000000000002,-6.28 c2.96,-0.52 7.29,-1.1600000000000001 11.57,-1.1600000000000001 c6.5600000000000005,0 12.05,1.87 12.05,9.53 v11.68 c0,2.03 -0.06000000000000001,3.74 -0.24000000000000002,5.69 c-3.48,2.08 -7.890000000000001,2.85 -12.93,2.85 C154.19000282287598,38.87000061035155 150.92000282287597,35.75000061035155 150.92000282287597,29.420000610351565 M167.43000282287596,24.81000061035155 c-1.77,0.12000000000000001 -3.79,0.2 -5.41,0.6000000000000001 c-2.07,0.51 -2.91,1.2 -2.91,3.9 c0,2.44 1.48,3.14 4.04,3.14 c1.31,0 2.8,-0.08000000000000002 4.11,-0.5700000000000001 c0.13,-1.17 0.18000000000000002,-2.59 0.18000000000000002,-3.89 V24.81000061035155 z" id="svg_4"/>
		<path class="st0" d="M189.77000282287597,38.48000061035157 h-8.26 v-20.82 c0,-2.03 0.06000000000000001,-3.74 0.24000000000000002,-5.69 c3.48,-2.02 8.1,-2.85 12.84,-2.85 c10.7,0 11.92,4.57 11.92,11.06 v18.3 h-8.29 V20.81000061035155 c0,-3.51 -0.6700000000000002,-4.94 -4.67,-4.96 c-1.29,0 -2.7,0.21000000000000002 -3.59,0.5700000000000001 c-0.13,1.17 -0.18000000000000002,2.59 -0.18000000000000002,3.89 V38.48000061035157 z" id="svg_5"/>
		<path class="st0" d="M232.62000282287596,37.670000610351565 c-2.59,0.7000000000000001 -5.890000000000001,1.2 -9.98,1.2 c-9.77,0 -11.21,-7.48 -11.21,-15.13 c0,-9.48 2.24,-14.620000000000001 12.98,-14.620000000000001 c3.5300000000000002,0 6.08,0.54 8.17,1.22 l-0.6700000000000002,6.08 c-1.9300000000000002,-0.39000000000000007 -3.66,-0.77 -5.5,-0.77 c-5.87,0 -6.6,1.92 -6.6,8.09 c0,5.83 0.29000000000000004,8.39 6.68,8.39 c1.8900000000000001,0 3.52,-0.3400000000000001 5.42,-0.7500000000000001 L232.62000282287596,37.670000610351565 z" id="svg_6"/>
		<path class="st0" d="M236.23000282287597,23.990000610351558 c0,-10.77 3.47,-14.870000000000001 13.08,-14.870000000000001 c9.61,0 13.07,4.16 13.07,14.870000000000001 c0,10.73 -3.47,14.88 -13.07,14.88 C239.700002822876,38.87000061035155 236.23000282287597,34.79000061035157 236.23000282287597,23.990000610351558 M254.07000282287595,23.990000610351558 c0,-6.32 -0.91,-8.1 -4.75,-8.1 c-3.84,0 -4.74,1.6600000000000001 -4.74,8.1 c0,6.47 0.8800000000000001,8.1 4.74,8.1 C253.17000282287597,32.08000061035156 254.07000282287595,30.35000061035157 254.07000282287595,23.990000610351558 " id="svg_7"/>
		<path class="st0" d="M114.21000282287596,83.81000061035155 l11.09,-32.38 c1.51,-4.37 3.62,-6.14 6.84,-6.14 c3.11,0 5.37,1.96 6.78,6.14 l10.93,32.38 h-9.46 l-2.59,-8.71 h-11.89 l-2.5,8.71 H114.21000282287596 zM135.76000282287598,68.20000061035157 l-3.9699999999999998,-13.45 l-3.88,13.45 H135.76000282287598 z" id="svg_8"/>
		<path class="st0" d="M180.840002822876,45.37000061035155 v29.37 c0,2 0.8500000000000001,3.03 3.01,3.03 c0.8700000000000001,0 1.61,-0.09000000000000002 2.51,-0.33000000000000007 l0.8200000000000001,6.18 c-1.75,0.33000000000000007 -3.83,0.5900000000000001 -5.61,0.5900000000000001 c-6.36,0 -9.06,-2.81 -9.06,-8.48 v-30.35 H180.840002822876 z" id="svg_9"/>
		<path class="st0" d="M189.24000282287597,74.70000061035157 c0,-5.25 2.31,-8.44 8.31,-9.43 c2.87,-0.47000000000000003 5.5,-0.5700000000000001 8.28,-0.6900000000000002 c0,-2.63 -1.34,-3.62 -4.45,-3.62 c-3.55,0 -7.5600000000000005,0.41000000000000003 -10.45,0.78 l-0.6900000000000002,-6.3100000000000005 c2.98,-0.52 7.35,-1.1600000000000001 11.65,-1.1600000000000001 c6.6,0 12.12,1.8800000000000001 12.12,9.59 v11.75 c0,2.05 -0.08000000000000002,3.7600000000000002 -0.25,5.73 c-3.5,2.09 -7.93,2.8600000000000003 -13.02,2.8600000000000003 C192.53000282287599,84.20000061035157 189.24000282287597,81.06000061035155 189.24000282287597,74.70000061035157 M205.840002822876,70.07000061035157 c-1.78,0.11000000000000001 -3.81,0.19000000000000003 -5.45,0.6000000000000001 c-2.06,0.51 -2.91,1.21 -2.91,3.93 c0,2.45 1.47,3.16 4.04,3.16 c1.33,0 2.83,-0.08000000000000002 4.14,-0.5700000000000001 c0.13,-1.18 0.18000000000000002,-2.6 0.18000000000000002,-3.91 V70.07000061035157 zM205.120002822876,51.160000610351574 h-6.36 l4.28,-7.29 h8.3 L205.120002822876,51.160000610351574 z" id="svg_10"/>
		<path class="st0" d="M228.69000282287595,83.81000061035155 h-8.31 v-20.94 c0,-2.04 0.07,-3.7600000000000002 0.25,-5.73 c3.5,-2.03 8.15,-2.8600000000000003 12.91,-2.8600000000000003 c10.77,0 12,4.59 12,11.12 v18.41 h-8.35 v-17.77 c0,-3.5300000000000002 -0.6700000000000002,-4.97 -4.7,-4.99 c-1.29,0 -2.72,0.22000000000000003 -3.62,0.5800000000000001 c-0.13,1.18 -0.18000000000000002,2.6 -0.18000000000000002,3.91 V83.81000061035155 z" id="svg_11"/>
		<path class="st0" d="M271.330002822876,47.690000610351575 c0,-3.01 1.11,-4.17 4.51,-4.17 c3.38,0 4.51,1.1600000000000001 4.51,4.17 c0,3.01 -1.1,4.17 -4.51,4.17 C272.43000282287596,51.87000061035155 271.330002822876,50.71000061035156 271.330002822876,47.690000610351575 M271.63000282287595,54.28000061035155 h8.46 v29.53 h-8.46 V54.28000061035155 z" id="svg_12"/>
		<path class="st0" d="M303.650002822876,45.38000061035157 h8.4 v30.24 c0,2.05 -0.07,3.7600000000000002 -0.25,5.73 c-3.3,2.01 -7.93,2.8600000000000003 -12.02,2.8600000000000003 c-9.870000000000001,0 -14.01,-3.48 -14.01,-14.97 c0,-11.35 4.14,-14.95 13.19,-14.95 c1.47,0 3.23,0.16000000000000003 4.7,0.44000000000000006 V45.38000061035157 zM300.460002822876,60.98000061035157 c-6.09,0 -6.3,3.5700000000000003 -6.3,8.25 c0,4.12 0.18000000000000002,8.32 5.61,8.32 c1.33,0 2.8,-0.2 3.7,-0.56 c0.13,-1.18 0.18000000000000002,-2.6 0.18000000000000002,-3.91 v-11.65 C302.710002822876,61.170000610351565 301.470002822876,60.98000061035157 300.460002822876,60.98000061035157 " id="svg_13"/>
		<path class="st0" d="M317.31000282287596,74.70000061035157 c0,-5.25 2.3200000000000003,-8.44 8.31,-9.43 c2.88,-0.47000000000000003 5.5,-0.5700000000000001 8.3,-0.6800000000000002 c0,-2.64 -1.36,-3.62 -4.47,-3.62 c-3.5300000000000002,0 -7.5600000000000005,0.41000000000000003 -10.45,0.78 l-0.6700000000000002,-6.3100000000000005 c2.98,-0.52 7.33,-1.1600000000000001 11.63,-1.1600000000000001 c6.6,0 12.13,1.8800000000000001 12.13,9.59 v11.75 c0,2.05 -0.07,3.7600000000000002 -0.25,5.73 c-3.5,2.09 -7.94,2.8600000000000003 -13.01,2.8600000000000003 C320.600002822876,84.21000061035156 317.31000282287596,81.06000061035155 317.31000282287596,74.70000061035157 M333.920002822876,70.07000061035157 c-1.78,0.12000000000000001 -3.81,0.2 -5.45,0.6000000000000001 c-2.07,0.51 -2.93,1.21 -2.93,3.93 c0,2.45 1.49,3.16 4.06,3.16 c1.32,0 2.81,-0.08000000000000002 4.14,-0.5700000000000001 c0.13,-1.18 0.18000000000000002,-2.6 0.18000000000000002,-3.91 V70.07000061035157 z" id="svg_14"/>
		<path class="st0" d="M259.760002822876,45.37000061035155 v8.9 h7.24 v6.9 h-7.24 v13.56 c0,2 0.8500000000000001,3.03 3.01,3.03 c0.8700000000000001,0 1.75,-0.030000000000000006 2.68,-0.11000000000000001 l0.6600000000000001,5.96 c-1.75,0.33000000000000007 -3.83,0.5900000000000001 -5.61,0.5900000000000001 c-6.36,0 -9.06,-2.81 -9.06,-8.48 v-30.35 H259.760002822876 z" id="svg_15"/>
		<path class="st0" d="M160.74000282287597,45.37000061035155 v8.9 h7.24 v6.9 h-7.24 v13.56 c0,2 0.8500000000000001,3.03 3.01,3.03 c0.8700000000000001,0 1.75,-0.030000000000000006 2.6900000000000004,-0.11000000000000001 l0.6500000000000001,5.96 c-1.75,0.33000000000000007 -3.83,0.5900000000000001 -5.61,0.5900000000000001 c-6.37,0 -9.07,-2.81 -9.07,-8.48 v-30.35 H160.74000282287597 z" id="svg_16"/>
	</g>
	<g id="svg_17">
		<defs transform="translate(-28.959997177124023,-157.88999938964844) ">
			<path id="SVGID_1_" d="M31.73,157.89c-1.53,0-2.77,1.23-2.77,2.76v45.26c0,21.91,14.09,36.2,36,36.2H83.6     c1.53,0,2.78-1.25,2.78-2.78v-22.28c0-1.52-1.25-2.77-2.78-2.77H71.7c-1.52,0-8.65-0.24-8.65-8.64v-44.98     c0-1.53-1.25-2.76-2.77-2.76H31.73z"/>
		</defs>
		<clipPath id="SVGID_2_" transform="translate(-28.959997177124023,-157.88999938964844) ">
			<use xlink:href="#SVGID_1_" style="overflow:visible;" id="svg_18"/>
		</clipPath>
		
			<linearGradient id="SVGID_3_" gradientUnits="userSpaceOnUse" x1="-229.03280639648438" y1="492.23858642578125" x2="-227.48680114746094" y2="492.23858642578125" gradientTransform="matrix(26.8041 0 0 -26.8041 6184.7622 13394.0117)" transform="translate(-28.959997177124023,-157.88999938964844) ">
			<stop offset="0" style="stop-color:#E22132"/>
			<stop offset="0.5786" style="stop-color:#CE1D2E"/>
			<stop offset="1" style="stop-color:#BD1B2B"/>
		</linearGradient>
		<rect x="0.0000019073486328125" y="0" class="st1" width="57.41999816894531" height="84.22000122070312" id="svg_19"/>
	</g>
	<g id="svg_20">
		<defs transform="translate(-28.959997177124023,-157.88999938964844) ">
			<path id="SVGID_4_" d="M69.94,170.05c-1.53,0-2.78,1.25-2.78,2.78v25.53c0,1.52,1.25,2.77,2.78,2.77h13.6     c1.53,0,6.88,0.24,6.88,8.65v29.56c0,1.53,1.25,2.78,2.78,2.78h28.55c1.53,0,2.78-1.25,2.78-2.78v-33.08     c0-21.92-14.09-36.2-36-36.2H69.94z"/>
		</defs>
		<clipPath id="SVGID_5_" transform="translate(-28.959997177124023,-157.88999938964844) ">
			<use xlink:href="#SVGID_4_" style="overflow:visible;" id="svg_21"/>
		</clipPath>
		
			<linearGradient id="SVGID_6_" gradientUnits="userSpaceOnUse" x1="-210.09300231933594" y1="502.8223876953125" x2="-208.5469970703125" y2="502.8223876953125" gradientTransform="matrix(-22.3244 0 0 22.3244 -4584.5962 -11019.1309)" transform="translate(-28.959997177124023,-157.88999938964844) ">
			<stop offset="0" style="stop-color:#E22132"/>
			<stop offset="0.5786" style="stop-color:#CE1D2E"/>
			<stop offset="1" style="stop-color:#BD1B2B"/>
		</linearGradient>
		<rect x="38.20000648498535" y="12.160003662109375" class="st2" width="57.36000061035156" height="72.05999755859375" id="svg_22"/>
	</g>
</g></g></svg>