<svg id="Layer_1" data-name="Layer 1" xmlns="http://www.w3.org/2000/svg" viewBox="0 0 499.67 50.26"><defs><style>.cls-1{fill:#fff;}</style></defs><title>logo_banco_single_white</title><path class="cls-1" d="M166.77,25a9.29,9.29,0,0,1-5.93,8.86c3.67,1.25,6.51,4.1,6.51,9.56,0,9.71-7.7,11.51-16.19,11.51a80.39,80.39,0,0,1-14-1.12V14.89a73.47,73.47,0,0,1,13.34-1.22c7.6,0,16.24,1.47,16.24,11.29m-20.3,12.37V47a31.74,31.74,0,0,0,4.52.29c4.12,0,7-.69,7-4.87,0-4.42-3.13-5.12-7.24-5.12Zm4.33-7c3.94,0,6.86-.68,6.86-4.7s-2.81-4.49-7.13-4.49a34.55,34.55,0,0,0-4,.26v8.93Z" transform="translate(-50.17 -4.72)"/><path class="cls-1" d="M172.54,44.82c0-5.56,2.45-8.94,8.75-10A68.27,68.27,0,0,1,190,34.1c0-2.79-1.43-3.83-4.7-3.83a90.48,90.48,0,0,0-11,.83l-.71-6.69a73,73,0,0,1,12.25-1.23c6.94,0,12.77,2,12.77,10.16V45.79c0,2.16-.07,4-.26,6.06-3.69,2.22-8.36,3-13.7,3-8.67,0-12.13-3.33-12.13-10.07M190,39.91a34.3,34.3,0,0,0-5.73.64c-2.2.54-3.08,1.28-3.08,4.16,0,2.6,1.57,3.35,4.27,3.35a12.62,12.62,0,0,0,4.36-.61,40.41,40.41,0,0,0,.19-4.14Z" transform="translate(-50.17 -4.72)"/><path class="cls-1" d="M213.7,54.47h-8.75V32.29c0-2.16.07-4,.26-6.06,3.69-2.15,8.58-3,13.59-3,11.34,0,12.62,4.87,12.62,11.79V54.47h-8.78V35.64c0-3.74-.71-5.26-4.95-5.28a11.3,11.3,0,0,0-3.81.61,39.37,39.37,0,0,0-.19,4.14Z" transform="translate(-50.17 -4.72)"/><path class="cls-1" d="M259.07,53.6a40.41,40.41,0,0,1-10.57,1.28c-10.35,0-11.88-8-11.88-16.12,0-10.11,2.37-15.58,13.74-15.58a26.67,26.67,0,0,1,8.65,1.3L258.32,31a28.83,28.83,0,0,0-5.82-.82c-6.22,0-7,2-7,8.62,0,6.22.31,8.94,7.08,8.94a26.18,26.18,0,0,0,5.74-.8Z" transform="translate(-50.17 -4.72)"/><path class="cls-1" d="M262.91,39c0-11.48,3.67-15.84,13.86-15.84S290.61,27.62,290.61,39s-3.67,15.86-13.85,15.86S262.91,50.54,262.91,39m18.89,0c0-6.74-1-8.63-5-8.63s-5,1.76-5,8.63.93,8.63,5,8.63,5-1.85,5-8.63" transform="translate(-50.17 -4.72)"/><path class="cls-1" d="M308.48,54.52,320.23,20c1.6-4.66,3.83-6.54,7.24-6.54s5.69,2.09,7.18,6.54l11.58,34.5h-10l-2.74-9.27h-12.6l-2.65,9.27Zm22.82-16.63-4.21-14.33L323,37.89Z" transform="translate(-50.17 -4.72)"/><path class="cls-1" d="M379.05,13.57v31.3c0,2.13.9,3.22,3.19,3.22a9.32,9.32,0,0,0,2.66-.36l.87,6.58a34,34,0,0,1-5.94.63c-6.74,0-9.6-3-9.6-9V13.57Z" transform="translate(-50.17 -4.72)"/><path class="cls-1" d="M388,44.81c0-5.6,2.44-9,8.8-10a68.9,68.9,0,0,1,8.77-.73c0-2.81-1.42-3.85-4.72-3.85a91,91,0,0,0-11.07.84L389,24.29a73.62,73.62,0,0,1,12.34-1.24c7,0,12.84,2,12.84,10.21V45.79c0,2.18-.09,4-.26,6.1-3.71,2.23-8.4,3.05-13.79,3.05-8.7,0-12.19-3.35-12.19-10.13m17.57-4.93a34.23,34.23,0,0,0-5.77.64c-2.18.54-3.09,1.29-3.09,4.19,0,2.61,1.56,3.37,4.28,3.37a12.71,12.71,0,0,0,4.38-.61,39.39,39.39,0,0,0,.19-4.17Zm-.76-20.14H398L402.56,12h8.79Z" transform="translate(-50.17 -4.72)"/><path class="cls-1" d="M429.74,54.52h-8.81V32.21c0-2.18.07-4,.26-6.1,3.71-2.16,8.63-3.05,13.67-3.05,11.4,0,12.7,4.89,12.7,11.85V54.52h-8.84V35.59c0-3.77-.71-5.3-5-5.32a11.32,11.32,0,0,0-3.83.61,40.88,40.88,0,0,0-.19,4.16Z" transform="translate(-50.17 -4.72)"/><path class="cls-1" d="M474.89,16c0-3.21,1.18-4.44,4.77-4.44s4.77,1.23,4.77,4.44-1.16,4.45-4.77,4.45-4.77-1.24-4.77-4.45m.32,7h9V54.52h-9Z" transform="translate(-50.17 -4.72)"/><path class="cls-1" d="M509.12,13.57H518V45.79c0,2.18-.07,4-.27,6.1-3.5,2.14-8.4,3.05-12.73,3.05-10.45,0-14.84-3.71-14.84-16s4.38-15.93,14-15.93a28.17,28.17,0,0,1,5,.47ZM505.74,30.2c-6.45,0-6.67,3.8-6.67,8.79,0,4.39.19,8.86,5.95,8.86a11.87,11.87,0,0,0,3.91-.59,40.4,40.4,0,0,0,.19-4.17V30.67a13.54,13.54,0,0,0-3.38-.47" transform="translate(-50.17 -4.72)"/><path class="cls-1" d="M523.59,44.81c0-5.6,2.46-9,8.8-10a69.13,69.13,0,0,1,8.79-.73c0-2.81-1.44-3.86-4.73-3.86a91.19,91.19,0,0,0-11.07.84l-.71-6.73A73.61,73.61,0,0,1,537,23.05c7,0,12.84,2,12.84,10.21V45.79c0,2.18-.07,4-.26,6.1-3.71,2.23-8.41,3.05-13.78,3.05-8.72,0-12.2-3.35-12.2-10.13m17.59-4.93a34.24,34.24,0,0,0-5.77.64c-2.2.54-3.1,1.29-3.1,4.19,0,2.61,1.58,3.37,4.3,3.37a12.75,12.75,0,0,0,4.38-.61,39.86,39.86,0,0,0,.19-4.17Z" transform="translate(-50.17 -4.72)"/><path class="cls-1" d="M462.64,13.57v9.49h7.67v7.36h-7.67V44.86c0,2.13.9,3.22,3.19,3.22.92,0,1.85,0,2.84-.12l.7,6.35a34,34,0,0,1-5.94.63c-6.74,0-9.6-3-9.6-9V13.57Z" transform="translate(-50.17 -4.72)"/><path class="cls-1" d="M357.76,13.57v9.49h7.67v7.36h-7.67V44.86c0,2.13.9,3.22,3.19,3.22.92,0,1.85,0,2.84-.12l.69,6.35a34,34,0,0,1-5.94.63c-6.74,0-9.6-3-9.6-9V13.57Z" transform="translate(-50.17 -4.72)"/><path class="cls-1" d="M51.81,4.72a1.65,1.65,0,0,0-1.65,1.65v27c0,13.08,8.36,21.6,21.35,21.6H82.58a1.65,1.65,0,0,0,1.64-1.66V40a1.66,1.66,0,0,0-1.64-1.65H75.52a4.75,4.75,0,0,1-5.13-5.16V6.38a1.65,1.65,0,0,0-1.65-1.65Z" transform="translate(-50.17 -4.72)"/><path class="cls-1" d="M74.48,12a1.66,1.66,0,0,0-1.65,1.66V28.88a1.66,1.66,0,0,0,1.65,1.65h8.07c.91,0,4.08.14,4.08,5.16V53.33A1.66,1.66,0,0,0,88.27,55h16.93a1.66,1.66,0,0,0,1.65-1.66V33.59C106.86,20.51,98.5,12,85.5,12Z" transform="translate(-50.17 -4.72)"/></svg>